<svg xmlns="http://www.w3.org/2000/svg" width="1440" height="960" viewBox="0 0 1440 960" role="img" aria-label="A 对话优先 · 知识库资料管理 · 演示"><title>A 对话优先 · 知识库资料管理 · 演示</title><desc>UI 设计，所有问题、文件、图片与任务均为演示。未连接真实服务。</desc><style>text{font-family:Microsoft YaHei UI,Microsoft YaHei,PingFang SC,sans-serif;text-rendering:optimizeLegibility}</style><defs><filter id="shadow" x="-30%" y="-50%" width="160%" height="220%"><feDropShadow dx="0" dy="8" stdDeviation="16" flood-color="#111111" flood-opacity=".07"/></filter></defs><rect x="0" y="0" width="1440" height="960" rx="0" fill="#FFFFFF"/><rect x="0" y="0" width="1440" height="960" rx="0" fill="#F3F3F2"/><svg x="25" y="20" width="32" height="32" viewBox="0 0 80 80"><title>回响</title><g transform="translate(8 8)" fill="#171717"><path id="arc" d="M8 42C1 29 8 14 22 8C32 3 43 4 47 10C52 17 46 24 38 22C25 18 15 27 12 38L11 44C10 45 9 44 8 42Z"/><path transform="rotate(180 32 32)" d="M8 42C1 29 8 14 22 8C32 3 43 4 47 10C52 17 46 24 38 22C25 18 15 27 12 38L11 44C10 45 9 44 8 42Z"/></g></svg><text x="65" y="43" font-size="18" fill="#171717" font-weight="600" text-anchor="start">CiteRAG</text><path d="M231 18L231 53" stroke="#E4E4E4" stroke-width="1" fill="none"/><text x="269" y="42" font-size="14" fill="#171717" font-weight="400" text-anchor="start">知识库管理</text><text x="1352" y="41" font-size="12" fill="#666666" font-weight="400" text-anchor="end">演示 · UI 设计</text><circle cx="1395" cy="35" r="17" fill="#F5F5F4"/><text x="1395" y="40" font-size="12" fill="#171717" font-weight="400" text-anchor="middle">林</text><path d="M0 71L1440 71" stroke="#E4E4E4" stroke-width="1" fill="none"/><rect x="48" y="98" width="1344" height="814" rx="18" fill="#FFFFFF" stroke="#E4E4E4" stroke-width="1" filter="url(#shadow)"/><rect x="48" y="98" width="250" height="814" rx="18" fill="#FAFAF9"/><rect x="282" y="98" width="16" height="814" rx="0" fill="#FAFAF9"/><path d="M298 98L298 912" stroke="#E4E4E4" stroke-width="1" fill="none"/><text x="74" y="143" font-size="17" fill="#171717" font-weight="600" text-anchor="start">团队知识库</text><g transform="translate(251 126) scale(0.75)" stroke="#666666" stroke-width="1.6" fill="none" stroke-linecap="round" stroke-linejoin="round"><path d="M12 5v14M5 12h14"/></g><rect x="64" y="168" width="218" height="72" rx="13" fill="#191919"/><g transform="translate(79 183) scale(0.9166666666666666)" stroke="#FFFFFF" stroke-width="1.6" fill="none" stroke-linecap="round" stroke-linejoin="round"><path d="M3 5h7l2 3h9v13H3Z"/></g><text x="113" y="198" font-size="15" fill="#FFFFFF" font-weight="500" text-anchor="start">产品支持知识库</text><text x="113" y="221" font-size="12" fill="#E9C9C3" font-weight="400" text-anchor="start">需修复 · 问答暂停</text><g transform="translate(79 268) scale(0.875)" stroke="#666666" stroke-width="1.6" fill="none" stroke-linecap="round" stroke-linejoin="round"><path d="M3 5h7l2 3h9v13H3Z"/></g><text x="113" y="284" font-size="14" fill="#171717" font-weight="400" text-anchor="start">团队服务规范</text><text x="113" y="307" font-size="12" fill="#666666" font-weight="400" text-anchor="start">可问答</text><g transform="translate(79 356) scale(0.875)" stroke="#666666" stroke-width="1.6" fill="none" stroke-linecap="round" stroke-linejoin="round"><path d="M3 5h7l2 3h9v13H3Z"/></g><text x="113" y="372" font-size="14" fill="#171717" font-weight="400" text-anchor="start">设备维护记录</text><text x="113" y="395" font-size="12" fill="#666666" font-weight="400" text-anchor="start">可问答</text><text x="76" y="786" font-size="12" fill="#666666" font-weight="400" text-anchor="start">管理员</text><g transform="translate(76 807) scale(0.75)" stroke="#666666" stroke-width="1.6" fill="none" stroke-linecap="round" stroke-linejoin="round"><path d="M8 7a4 4 0 1 1 8 0 4 4 0 0 1-8 0ZM4 22v-2a8 8 0 0 1 16 0v2"/></g><text x="106" y="823" font-size="13" fill="#171717" font-weight="400" text-anchor="start">账号管理</text><g transform="translate(76 852) scale(0.75)" stroke="#666666" stroke-width="1.6" fill="none" stroke-linecap="round" stroke-linejoin="round"><path d="M12 8a4 4 0 1 0 0 8 4 4 0 0 0 0-8ZM12 2v3M12 19v3M2 12h3M19 12h3M5 5l2 2M17 17l2 2M5 19l2-2M17 7l2-2"/></g><text x="106" y="868" font-size="13" fill="#171717" font-weight="400" text-anchor="start">系统状态</text><text x="332" y="145" font-size="24" fill="#171717" font-weight="600" text-anchor="start">产品支持知识库</text><g transform="translate(1339 128) scale(0.875)" stroke="#666666" stroke-width="1.6" fill="none" stroke-linecap="round" stroke-linejoin="round"><path d="M5 12h.01M12 12h.01M19 12h.01"/></g><circle cx="336" cy="178" r="3" fill="#A43B35"/><text x="350" y="183" font-size="13" fill="#A43B35" font-weight="400" text-anchor="start">问答已暂停</text><text x="466" y="183" font-size="12" fill="#666666" font-weight="400" text-anchor="start">本库回答与通话已结束，修复并核查来源后恢复。</text><rect x="332" y="211" width="605" height="40" rx="20" fill="#F5F5F4"/><g transform="translate(348 223) scale(0.7083333333333334)" stroke="#666666" stroke-width="1.6" fill="none" stroke-linecap="round" stroke-linejoin="round"><path d="M21 21l-5-5M18 10.5a7.5 7.5 0 1 1-15 0 7.5 7.5 0 0 1 15 0Z"/></g><text x="377" y="237" font-size="13" fill="#666666" font-weight="400" text-anchor="start">搜索资料名称或型号</text><rect x="1196" y="211" width="162" height="40" rx="20" fill="#F5F5F4" stroke="#E4E4E4" stroke-width="1"/><g transform="translate(1210 222.0) scale(0.75)" stroke="#666666" stroke-width="1.6" fill="none" stroke-linecap="round" stroke-linejoin="round"><path d="M12 16V3M7 8l5-5 5 5M4 16v5h16v-5"/></g><text x="1236" y="236.0" font-size="14" fill="#666666" font-weight="500" text-anchor="start">上传资料</text><text x="332" y="281" font-size="12" fill="#666666" font-weight="400" text-anchor="start">资料名称</text><text x="888" y="281" font-size="12" fill="#666666" font-weight="400" text-anchor="start">型号</text><text x="1080" y="281" font-size="12" fill="#666666" font-weight="400" text-anchor="start">入库状态</text><text x="1310" y="281" font-size="12" fill="#666666" font-weight="400" text-anchor="start">操作</text><path d="M332 297L1358 297" stroke="#E4E4E4" stroke-width="1" fill="none"/><rect x="333" y="318" width="42" height="51" rx="5" fill="#F5F5F4"/><g transform="translate(343 332) scale(0.9166666666666666)" stroke="#666666" stroke-width="1.6" fill="none" stroke-linecap="round" stroke-linejoin="round"><path d="M5 2h9l5 5v15H5ZM14 2v6h5M8 12h8M8 16h6"/></g><text x="393" y="340" font-size="16" fill="#171717" font-weight="500" text-anchor="start">X100 使用手册.pdf</text><text x="393" y="366" font-size="12" fill="#666666" font-weight="400" text-anchor="start">文字 PDF · 演示资料</text><text x="888" y="347" font-size="14" fill="#171717" font-weight="400" text-anchor="start">X100</text><g transform="translate(1080 332) scale(0.7083333333333334)" stroke="#32664D" stroke-width="1.6" fill="none" stroke-linecap="round" stroke-linejoin="round"><path d="M5 12l4 4L19 6"/></g><text x="1105" y="347" font-size="13" fill="#666666" font-weight="400" text-anchor="start">已入库</text><g transform="translate(1320 334) scale(0.8333333333333334)" stroke="#666666" stroke-width="1.6" fill="none" stroke-linecap="round" stroke-linejoin="round"><path d="M5 12h.01M12 12h.01M19 12h.01"/></g><path d="M332 389L1358 389" stroke="#E4E4E4" stroke-width="1" fill="none"/><rect x="333" y="407" width="42" height="51" rx="5" fill="#F5F5F4"/><g transform="translate(343 421) scale(0.9166666666666666)" stroke="#666666" stroke-width="1.6" fill="none" stroke-linecap="round" stroke-linejoin="round"><path d="M5 2h9l5 5v15H5ZM14 2v6h5M8 12h8M8 16h6"/></g><text x="393" y="429" font-size="16" fill="#171717" font-weight="500" text-anchor="start">日常维护指南.docx</text><text x="393" y="455" font-size="12" fill="#666666" font-weight="400" text-anchor="start">普通 DOCX · 演示资料</text><text x="888" y="436" font-size="14" fill="#171717" font-weight="400" text-anchor="start">通用</text><g transform="translate(1080 421) scale(0.7083333333333334)" stroke="#32664D" stroke-width="1.6" fill="none" stroke-linecap="round" stroke-linejoin="round"><path d="M5 12l4 4L19 6"/></g><text x="1105" y="436" font-size="13" fill="#666666" font-weight="400" text-anchor="start">已入库</text><g transform="translate(1320 423) scale(0.8333333333333334)" stroke="#666666" stroke-width="1.6" fill="none" stroke-linecap="round" stroke-linejoin="round"><path d="M5 12h.01M12 12h.01M19 12h.01"/></g><path d="M332 478L1358 478" stroke="#E4E4E4" stroke-width="1" fill="none"/><rect x="333" y="496" width="42" height="51" rx="5" fill="#F5F5F4"/><g transform="translate(343 510) scale(0.9166666666666666)" stroke="#666666" stroke-width="1.6" fill="none" stroke-linecap="round" stroke-linejoin="round"><path d="M5 2h9l5 5v15H5ZM14 2v6h5M8 12h8M8 16h6"/></g><text x="393" y="518" font-size="16" fill="#171717" font-weight="500" text-anchor="start">X100 补充说明.md</text><text x="393" y="544" font-size="12" fill="#666666" font-weight="400" text-anchor="start">Markdown · 演示资料</text><text x="888" y="525" font-size="14" fill="#171717" font-weight="400" text-anchor="start">X100</text><g transform="translate(1080 510) scale(0.7083333333333334)" stroke="#A43B35" stroke-width="1.6" fill="none" stroke-linecap="round" stroke-linejoin="round"><path d="M6 6l12 12M18 6L6 18"/></g><text x="1105" y="525" font-size="13" fill="#A43B35" font-weight="400" text-anchor="start">入库失败</text><g transform="translate(1320 512) scale(0.8333333333333334)" stroke="#666666" stroke-width="1.6" fill="none" stroke-linecap="round" stroke-linejoin="round"><path d="M5 12h.01M12 12h.01M19 12h.01"/></g><path d="M332 567L1358 567" stroke="#E4E4E4" stroke-width="1" fill="none"/><rect x="332" y="613" width="1026" height="235" rx="12" fill="#FAFAF8" stroke="#E4E4E4" stroke-width="1"/><text x="353" y="647" font-size="16" fill="#171717" font-weight="600" text-anchor="start">本次入库</text><text x="453" y="647" font-size="12" fill="#666666" font-weight="400" text-anchor="start">X100 补充说明.md · 演示任务</text><text x="1319" y="647" font-size="13" fill="#A43B35" font-weight="400" text-anchor="end">待修复</text><g transform="translate(354 675) scale(0.7083333333333334)" stroke="#32664D" stroke-width="1.6" fill="none" stroke-linecap="round" stroke-linejoin="round"><path d="M5 12l4 4L19 6"/></g><text x="380" y="690" font-size="14" fill="#32664D" font-weight="400" text-anchor="start">文件已上传</text><path d="M507 683L573 683" stroke="#E4E4E4" stroke-width="1" fill="none"/><g transform="translate(604 675) scale(0.7083333333333334)" stroke="#32664D" stroke-width="1.6" fill="none" stroke-linecap="round" stroke-linejoin="round"><path d="M5 12l4 4L19 6"/></g><text x="630" y="690" font-size="14" fill="#32664D" font-weight="400" text-anchor="start">正文已解析</text><path d="M757 683L823 683" stroke="#E4E4E4" stroke-width="1" fill="none"/><g transform="translate(854 675) scale(0.7083333333333334)" stroke="#A43B35" stroke-width="1.6" fill="none" stroke-linecap="round" stroke-linejoin="round"><path d="M6 6l12 12M18 6L6 18"/></g><text x="880" y="690" font-size="14" fill="#A43B35" font-weight="400" text-anchor="start">建立索引失败</text><path d="M1007 683L1073 683" stroke="#E4E4E4" stroke-width="1" fill="none"/><g transform="translate(1104 675) scale(0.7083333333333334)" stroke="#666666" stroke-width="1.6" fill="none" stroke-linecap="round" stroke-linejoin="round"><path d="M8 5v14M16 5v14"/></g><text x="1130" y="690" font-size="14" fill="#666666" font-weight="400" text-anchor="start">来源待检查</text><path d="M352 717L1336 717" stroke="#E4E4E4" stroke-width="1" fill="none"/><text x="353" y="753" font-size="15" fill="#171717" font-weight="400" text-anchor="start">建立索引时服务中断，文件还不能用于回答。</text><text x="353" y="789" font-size="13" fill="#666666" font-weight="400" text-anchor="start">无需重复上传；重试仍失败时，可从原文重建。</text><rect x="1190" y="744" width="145" height="42" rx="21" fill="#191919"/><g transform="translate(1204 756.0) scale(0.75)" stroke="#FFFFFF" stroke-width="1.6" fill="none" stroke-linecap="round" stroke-linejoin="round"><path d="M20 3v6h-6M4 21v-6h6M6 6a8 8 0 0 1 14 3M18 18a8 8 0 0 1-14-3"/></g><text x="1230" y="770.0" font-size="14" fill="#FFFFFF" font-weight="500" text-anchor="start">重试入库</text><text x="1126" y="817" font-size="13" fill="#171717" font-weight="400" text-anchor="start">查看详情</text><text x="1244" y="817" font-size="13" fill="#171717" font-weight="400" text-anchor="start">从原文重建</text><text x="332" y="882" font-size="12" fill="#666666" font-weight="400" text-anchor="start">TXT / MD / 文字 PDF / 普通 DOCX · 每份 ≤20 MB · 每批 ≤5 份 · PDF ≤100 页</text><text x="1390" y="941" font-size="12" fill="#666666" font-weight="400" text-anchor="end">仅管理员可见 · 资料与任务状态均为演示</text></svg>